Coordinates
version=1
nRows=11
nColumns=40
inDegrees=yes

Units are S.I. units (second, meters, Newtons, ...)
If the header above contains a line with 'inDegrees', this indicates whether rotational values are in degrees (yes) or radians (no).

endheader
time	pelvis_tilt	pelvis_list	pelvis_rotation	pelvis_tx	pelvis_ty	pelvis_tz	hip_flexion_r	hip_adduction_r	hip_rotation_r	knee_angle_r	knee_angle_r_beta	ankle_angle_r	subtalar_angle_r	mtp_angle_r	hip_flexion_l	hip_adduction_l	hip_rotation_l	knee_angle_l	knee_angle_l_beta	ankle_angle_l	subtalar_angle_l	mtp_angle_l	lumbar_extension	lumbar_bending	lumbar_rotation	arm_flex_r	arm_add_r	arm_rot_r	elbow_flex_r	pro_sup_r	wrist_flex_r	wrist_dev_r	arm_flex_l	arm_add_l	arm_rot_l	elbow_flex_l	pro_sup_l	wrist_flex_l	wrist_dev_l
      0.00000000	     -7.35970064	      6.38882265	    -14.78854090	      0.05193889	      1.31042724	      0.01912250	     59.19671896	     -1.36581902	     11.82129805	     98.25144244	      1.71481117	    -13.90274947	    -31.93974943	      0.00000000	     55.62449004	     -8.59942254	     -6.33300371	     54.09853673	      0.94419759	     -8.51313293	    -18.93236065	      0.00000000	    -35.81928561	    -10.35102130	      2.47888348	     59.42644211	      9.40834031	    -27.68283186	     50.77620816	     85.17479172	      0.00000000	      0.00000000	     68.46674372	     -1.65188564	    -16.29508345	     50.07280003	     83.42802328	      0.00000000	      0.00000000
      0.01700000	     -7.34638200	      6.00130536	    -15.19586656	      0.05134762	      1.31028810	      0.01927704	     60.82598455	     -0.14846296	     12.38771482	    100.76143930	      1.75861887	    -13.80025028	    -31.56151399	      0.00000000	     53.01245434	     -8.69386925	     -6.51670731	     50.99738208	      0.89007223	     -9.36521583	    -18.75177779	      0.00000000	    -35.69912940	    -10.01257222	      2.94162066	     59.36286975	      9.62320108	    -27.60751524	     50.68246742	     85.13812355	      0.00000000	      0.00000000	     68.00752468	     -1.75327148	    -16.66881787	     50.27117854	     83.49856480	      0.00000000	      0.00000000
      0.03300000	     -7.30216831	      5.64346420	    -15.71424089	      0.05078139	      1.31009778	      0.01960742	     62.44765951	      1.12682300	     12.98450763	    103.23338139	      1.80176240	    -13.69739426	    -31.02542846	      0.00000000	     50.29483771	     -8.84063574	     -6.86151643	     47.72072508	      0.83288377	    -10.34481273	    -18.62936319	      0.00000000	    -35.58067794	     -9.77839326	      3.49592950	     59.29554386	      9.83922034	    -27.60062182	     50.58048733	     85.13773584	      0.00000000	      0.00000000	     67.56678377	     -1.82843802	    -17.00003025	     50.43741819	     83.55992812	      0.00000000	      0.00000000
      0.05000000	     -7.50605011	      5.10267259	    -15.93387562	      0.05048778	      1.30954587	      0.01948683	     64.29893906	      2.22055039	     13.00299520	    105.40493601	      1.83966318	    -13.54137503	    -30.89163339	      0.00000000	     48.02631253	     -8.92049156	     -6.77486731	     44.87910354	      0.78328812	    -10.87990307	    -18.54720957	      0.00000000	    -35.28748062	     -9.16617970	      3.97851161	     59.25631787	     10.00564850	    -27.60435759	     50.44212019	     85.15662275	      0.00000000	      0.00000000	     67.22330676	     -1.92909116	    -17.21824931	     50.41119163	     83.57199395	      0.00000000	      0.00000000
      0.06700000	     -7.19080552	      5.24366448	    -16.96397165	      0.05004681	      1.30977077	      0.02029235	     65.95833499	      3.52073588	     13.93599880	    107.23414211	      1.87158885	    -12.75527232	    -30.49023371	      0.00000000	     45.26296106	     -9.21636197	     -8.48852023	     42.16884301	      0.73598515	    -12.57166967	    -17.73545320	      0.00000000	    -35.44148806	     -9.76243121	      4.54755569	     59.47148687	     10.32197237	    -27.85781167	     50.21275841	     85.10491075	      0.00000000	      0.00000000	     67.08886309	     -1.99096129	    -17.62450520	     50.61820922	     83.51275051	      0.00000000	      0.00000000
      0.08300000	     -7.39418962	      4.93714572	    -17.23380196	      0.04982057	      1.30942878	      0.02022675	     68.01824977	      4.42855956	     13.77608845	    108.71650568	      1.89746098	    -11.90549175	    -30.69316005	      0.00000000	     43.37472700	     -9.39294469	     -9.10918584	     40.02849010	      0.69862895	    -14.08300663	    -16.77169407	      0.00000000	    -35.26529469	     -9.44798351	      4.90181371	     59.64278744	     10.49088112	    -27.99814503	     50.04089625	     84.89936713	      0.00000000	      0.00000000	     67.01877211	     -2.08207795	    -17.88541037	     50.69345100	     83.25618834	      0.00000000	      0.00000000
      0.10000000	     -7.47882527	      4.81964163	    -17.65285472	      0.04966402	      1.30918332	      0.02029085	     69.93875466	      5.36285720	     13.77067918	    109.88403593	      1.91783822	    -11.06523522	    -31.02220239	      0.00000000	     41.56292120	     -9.56412953	    -10.09812973	     38.31432275	      0.66871108	    -15.53860035	    -15.68787748	      0.00000000	    -35.15384128	     -9.43935029	      5.25775862	     59.83950804	     10.74591114	    -28.27689447	     49.85868797	     84.88693738	      0.00000000	      0.00000000	     66.97777382	     -2.02237014	    -18.30153931	     50.73032939	     83.10416245	      0.00000000	      0.00000000
      0.11700000	     -7.37564335	      4.79222632	    -18.43510718	      0.04954087	      1.30921239	      0.02081308	     71.54461645	      6.68880683	     14.01882236	    110.67385798	      1.93162322	    -10.24525844	    -31.29855978	      0.00000000	     39.64963278	     -9.91276405	    -11.53478345	     37.07717510	      0.64711878	    -16.41594959	    -14.47046795	      0.00000000	    -35.16764080	     -9.83935658	      5.94241646	     59.99616050	     10.97108731	    -28.92395797	     49.77442629	     85.28911156	      0.00000000	      0.00000000	     67.00708505	     -1.59445687	    -18.97368373	     50.71840315	     83.21184364	      0.00000000	      0.00000000
      0.13300000	     -7.58179792	      4.57900018	    -18.35835884	      0.04945055	      1.30898298	      0.02043675	     73.27525143	      7.34007901	     13.63172053	    111.16184312	      1.94014017	     -9.05326350	    -31.66053620	      0.00000000	     38.53168747	     -9.95203318	    -12.02172501	     36.43826753	      0.63596774	    -17.60759732	    -13.77741065	      0.00000000	    -35.04271836	     -9.54998931	      5.98707855	     60.14415126	     11.14417470	    -29.12160928	     49.62551917	     85.18556711	      0.00000000	      0.00000000	     67.07960789	     -1.37503851	    -19.52614739	     50.61427371	     83.04905823	      0.00000000	      0.00000000
      0.15000000	     -7.63758905	      4.52409171	    -18.54224001	      0.04937297	      1.30886855	      0.02029959	     74.79719142	      8.14862669	     13.51213828	    111.33097102	      1.94309200	     -8.02104233	    -31.93042540	      0.00000000	     37.55338271	    -10.09896477	    -12.89387804	     36.42233366	      0.63568964	    -18.82309343	    -12.80698181	      0.00000000	    -34.97536657	     -9.60564758	      6.24504017	     60.30400971	     11.32080609	    -29.75554021	     49.47237377	     85.26134484	      0.00000000	      0.00000000	     67.20670085	     -0.73698042	    -20.58821437	     50.47394086	     82.96010264	      0.00000000	      0.00000000
      0.16700000	     -7.46503641	      4.49417235	    -18.98500678	      0.04922921	      1.30905040	      0.02055690	     76.01874510	      9.20939033	     13.48231864	    111.15061691	      1.93994423	     -7.71398401	    -32.49176119	      0.00000000	     36.55794001	    -10.32338650	    -13.96294808	     36.99089156	      0.64561285	    -19.61671594	    -12.39780481	      0.00000000	    -35.08246914	     -9.89287888	      6.72311542	     60.43172800	     11.47026410	    -30.46603073	     49.40818176	     84.87797609	      0.00000000	      0.00000000	     67.55946771	     -0.04121194	    -21.57219577	     49.91886428	     82.04856356	      0.00000000	      0.00000000
